<?xml version="1.0" encoding="UTF-8"?>
<svg id="Layer_1" data-name="Layer 1" xmlns="http://www.w3.org/2000/svg" xmlns:xlink="http://www.w3.org/1999/xlink" version="1.1" viewBox="0 0 612 792">
  <defs>
    <style>
      .cls-1 {
        clip-path: url(#clippath);
      }

      .cls-2 {
        fill: none;
      }

      .cls-2, .cls-3, .cls-4, .cls-5, .cls-6, .cls-7 {
        stroke-width: 0px;
      }

      .cls-3 {
        fill: #e52c6a;
      }

      .cls-4 {
        fill: #edbe3a;
      }

      .cls-5 {
        fill: #fff;
      }

      .cls-6 {
        fill: #231f20;
      }

      .cls-7 {
        fill: #485def;
      }
    </style>
    <clipPath id="clippath">
      <path class="cls-2" d="M219.52,298.9c-2.48-.46-4.32-.73-5.23-.75-.36-.05-.74-.11-1.09-.15-.06,0-.13-.02-.2-.02-1.87-.32-6.3-.97-11.37-1-9.3-.27-19.44,1.24-21.72,9.71-.75,2.78-.38,5.34.73,7.68,0,0,0,.01,0,.02.16.33.33.66.52.98.1.17.21.34.31.52.08.13.16.25.24.38,6.11,9.2,23.27,15.1,23.27,15.1,0,0,1.25.46,3.34,1.22,8.11,3.26,17.75,6.58,28.18,9.73,9.61,3.13,18.96,5.91,24.03,6.7.62.1,1.24.2,1.87.31,12.7,3.05,24.6,5.33,34.36,6.54,3.18.4,7.47.93,11.94,1.04.11,0,.21.02.31.03,8.4.59,13.53-1.28,16.63-3.53.06-.04.13-.09.19-.14.13-.09.25-.19.37-.28.47-.37.92-.77,1.33-1.21,1.89-1.98,2.52-3.89,2.64-4.47.37-.53,3.64-10.53-14.28-19.65-1.95-.99-4.01-1.97-6.14-2.92-.51-.23-1-.45-1.49-.66-.12-.05-.24-.1-.36-.15-.8-.35-1.57-.67-2.26-.97-.52-.22-1.1-.45-1.64-.68-.01,0-.02,0-.03-.01-8.85-3.68-19.73-7.47-31.62-11.03-4.31-1.3-7.03-2.05-7.03-2.05,0,0-.16-.04-.43-.1-1.57-.44-3.14-.88-4.73-1.31-14.65-3.95-28.8-7.02-40.64-8.86v-.02Z"/>
    </clipPath>
  </defs>
  <path class="cls-6" d="M196.97,258.37c-1.51-.42-2.38-.66-2.38-.66,0,0-1.88-.48-4.89-1.23-11.64-3.14-22.89-5.89-32.79-8.04-5.76-1.35-10.19-2.32-11.34-2.39,0,0-10.2-2.35-18.89-2.45-5.81-.18-10.7.66-11.74,3.81-.01.03-.04.06-.05.1-.68,1.84.38,3.73,2.38,5.56.09.09.19.17.28.26.1.09.2.17.3.26.22.19.45.37.69.55.03.02.05.04.08.06.88.67,1.87,1.33,2.95,1.96,6.02,3.59,14.28,6.55,17.6,7.66-15.62,4.79-25.97,12.51-28.8,22.98-8.33,30.9,51.8,74.08,134.05,96.27,82.25,22.19,155.95,15.1,164.28-15.8,8.33-30.9-51.8-74.08-134.05-96.27-27.58-7.44-54.17-11.57-77.69-12.63h0ZM384.24,360.68c-6.63,24.58-67.96,29.48-136.72,10.93-68.76-18.55-119.31-53.63-112.68-78.21,2.77-10.28,15.14-17.1,33.6-20.22,3.14.92,6.34,1.84,9.62,2.75,6.43,1.88,12.18,3.45,15.8,4.22,13.02,3.34,25.21,6.1,35.01,7.92,9.18,1.7,28.29,5.24,30.13-1.58.01-.04.01-.08.02-.12.3-.53,1.04-3.84-6.62-8.5,6.3,1.33,12.7,2.87,19.17,4.62,68.76,18.55,119.31,53.63,112.68,78.21v-.02Z"/>
  <g class="cls-1">
    <g>
      <rect class="cls-3" x="178.41" y="136.26" width="51.25" height="253.31"/>
      <rect class="cls-4" x="229.66" y="136.26" width="51.25" height="253.31"/>
      <rect class="cls-7" x="280.97" y="136.26" width="51.25" height="253.31"/>
    </g>
  </g>
  <ellipse class="cls-5" cx="373.05" cy="293.3" rx="57.47" ry="80.92"/>
  <g>
    <path class="cls-6" d="M434.31,254.49c.02-.9.02-1.41.02-1.41,0,0-.04-1.11-.1-2.87,0-6.88-.34-13.48-.95-19.26-.24-3.37-.51-5.96-.78-6.6,0,0-.48-5.97-3.12-10.77-1.64-3.23-4.16-5.8-8.2-5.9-.05,0-.09,0-.13,0-2.37-.1-4.27.76-5.78,2.14-.07.06-.14.13-.21.2-.07.07-.14.14-.21.2-.15.15-.29.3-.43.46-.02.02-.03.03-.05.05-.51.58-.97,1.23-1.37,1.92-2.32,3.85-3.17,8.84-3.43,10.83-10.59-7.9-22.95-12.45-36.16-12.45-38.97,0-70.68,39.54-70.68,88.15s31.71,88.15,70.68,88.15,70.68-39.54,70.68-88.15c0-16.3-3.58-31.56-9.78-44.67h0ZM373.41,372.85c-31,0-56.22-33.06-56.22-73.69s25.22-73.69,56.22-73.69c12.97,0,24.92,5.8,34.44,15.5-.08,1.87-.15,3.77-.18,5.71-.17,3.82-.19,7.22.05,9.33.21,7.67.82,14.79,1.8,20.46.91,5.31,2.81,16.36,11.41,16.36h.15c.71.09,4.85,0,7.89-4.91.43,3.67.65,7.42.65,11.25,0,40.63-25.22,73.69-56.22,73.69h.01Z"/>
    <path class="cls-6" d="M384.22,268.64c-.14-1.38-.28-2.39-.43-2.87-.03-.19-.06-.4-.09-.6,0-.03-.01-.07-.02-.11-.12-1.03-.47-3.47-1.33-6.15-1.44-4.96-4.19-10.1-10.06-10.1-1.93,0-3.52.56-4.84,1.48h-.01c-.19.13-.37.27-.54.41-.09.08-.19.16-.28.24-.07.06-.13.12-.2.18-4.88,4.54-5.71,14.46-5.71,14.46,0,0-.08.72-.2,1.94-.69,4.75-1.16,10.32-1.38,16.29-.35,5.53-.51,10.87-.14,13.66.05.34.09.69.13,1.03.24,7.15.85,13.77,1.76,19.1.3,1.74.7,4.08,1.41,6.46.01.06.02.11.04.17,1.09,4.52,3.18,6.97,5.18,8.29.04.03.08.05.12.08.08.05.16.1.25.15.32.2.66.37,1.01.53,1.61.72,2.95.78,3.35.76.41.12,7.44.43,10.21-10.35.3-1.17.57-2.4.82-3.67.06-.3.11-.59.17-.88.01-.07.03-.14.04-.21.09-.47.16-.92.23-1.34.05-.31.1-.65.15-.96v-.02c.83-5.2,1.39-11.5,1.61-18.29.09-2.47.1-4.01.1-4.01v-.24c.01-.89.02-1.79.02-2.69,0-8.31-.48-16.23-1.36-22.75h-.01Z"/>
  </g>
</svg>